<?xml version="1.0" encoding="UTF-8"?>
<svg width="12px" height="19px" viewBox="0 0 12 19" version="1.1" xmlns="http://www.w3.org/2000/svg" xmlns:xlink="http://www.w3.org/1999/xlink">
    <!-- Generator: Sketch 56.3 (81716) - https://sketch.com -->
    <title>Group</title>
    <desc>Created with Sketch.</desc>
    <g id="Page-1" stroke="none" stroke-width="1" fill="none" fill-rule="evenodd">
        <g id="Artboard" transform="translate(0.000000, -1.000000)" fill="#000000" fill-rule="nonzero">
            <g id="Group" transform="translate(0.000000, 1.000000)">
                <path d="M0,0.5 L1,0.5 M0,1.5 L2,1.5 M0,2.5 L1,2.5 M2,2.5 L3,2.5 M0,3.5 L1,3.5 M3,3.5 L4,3.5 M0,4.5 L1,4.5 M4,4.5 L5,4.5 M0,5.5 L1,5.5 M5,5.5 L6,5.5 M0,6.5 L1,6.5 M6,6.5 L7,6.5 M0,7.5 L1,7.5 M7,7.5 L8,7.5 M0,8.5 L1,8.5 M8,8.5 L9,8.5 M0,9.5 L1,9.5 M9,9.5 L10,9.5 M0,10.5 L1,10.5 M10,10.5 L11,10.5 M0,11.5 L1,11.5 M11,11.5 L12,11.5 M0,12.5 L1,12.5 M7,12.5 L12,12.5 M0,13.5 L1,13.5 M4,13.5 L5,13.5 M7,13.5 L8,13.5 M0,14.5 L1,14.5 M3,14.5 L4,14.5 M5,14.5 L6,14.5 M8,14.5 L9,14.5 M0,15.5 L1,15.5 M2,15.5 L3,15.5 M5,15.5 L6,15.5 M8,15.5 L9,15.5 M0,16.5 L2,16.5 M6,16.5 L7,16.5 M9,16.5 L10,16.5 M6,17.5 L7,17.5 M9,17.5 L10,17.5 M7,18.5 L9,18.5" id="Shape" stroke="#000000"></path>
                <path d="M1,2.5 L2,2.5 M1,3.5 L3,3.5 M1,4.5 L4,4.5 M1,5.5 L5,5.5 M1,6.5 L6,6.5 M1,7.5 L7,7.5 M1,8.5 L8,8.5 M1,9.5 L9,9.5 M1,10.5 L10,10.5 M1,11.5 L11,11.5 M1,12.5 L7,12.5 M1,13.5 L4,13.5 M5,13.5 L7,13.5 M1,14.5 L3,14.5 M6,14.5 L8,14.5 M1,15.5 L2,15.5 M6,15.5 L8,15.5 M7,16.5 L9,16.5 M7,17.5 L9,17.5" id="Shape" stroke="#FFFFFF"></path>
                <g id="Face" transform="translate(2.000000, 7.000000)" stroke="#000000">
                    <path d="M3,0.5 L4,0.5" id="Path"></path>
                    <path d="M3,1.5 L4,1.5" id="Path"></path>
                    <path d="M1,0.5 L2,0.5" id="Path"></path>
                    <path d="M1,1.5 L2,1.5" id="Path"></path>
                    <path d="M0,2.5 L1,2.5" id="Path"></path>
                    <path d="M1,3.5 L2,3.5" id="Path"></path>
                    <path d="M2,3.5 L3,3.5" id="Path"></path>
                    <path d="M3,3.5 L4,3.5" id="Path"></path>
                </g>
            </g>
        </g>
    </g>
</svg>