<?xml version="1.0" standalone="no"?>
<!DOCTYPE svg PUBLIC "-//W3C//DTD SVG 20010904//EN"
 "http://www.w3.org/TR/2001/REC-SVG-20010904/DTD/svg10.dtd">
<svg version="1.0" xmlns="http://www.w3.org/2000/svg"
 width="260.000000pt" height="260.000000pt" viewBox="0 0 260.000000 260.000000"
 preserveAspectRatio="xMidYMid meet">
<metadata>
Created by potrace 1.11, written by Peter Selinger 2001-2013
</metadata>
<g transform="translate(0.000000,260.000000) scale(0.100000,-0.100000)"
fill="#000000" stroke="none">
<path d="M988 2375 c-2 -2 -19 -7 -38 -10 -58 -9 -133 -38 -175 -66 -50 -34
-109 -88 -123 -116 -8 -14 -26 -23 -54 -28 -76 -12 -146 -63 -300 -216 l-148
-147 0 -56 c0 -31 8 -75 17 -98 16 -42 58 -106 78 -120 41 -28 47 -37 50 -79
3 -57 23 -129 35 -129 6 0 10 -6 10 -14 0 -20 79 -95 107 -102 13 -4 23 -9 23
-13 0 -4 6 -8 13 -9 6 0 23 -3 37 -7 14 -4 56 -7 94 -8 l69 -2 36 -83 c24 -55
55 -104 94 -146 l57 -65 0 -319 0 -319 215 0 215 1 0 147 0 148 37 40 36 40 1
98 1 98 138 1 c104 0 140 -3 144 -12 5 -13 -9 -64 -32 -119 -7 -16 -22 -55
-34 -85 -12 -30 -26 -64 -31 -75 -14 -32 -101 -248 -107 -266 -4 -14 19 -16
222 -15 l227 1 13 35 c19 53 94 222 101 229 3 3 5 -7 4 -24 -1 -16 -2 -78 -1
-136 l1 -106 215 0 215 0 0 355 0 355 -36 33 c-36 31 -37 35 -38 103 -1 39 3
71 7 71 5 0 5 5 2 10 -3 6 -8 47 -10 91 -4 72 -12 117 -32 169 -3 8 -7 20 -8
25 -4 16 -37 68 -70 109 -29 36 -30 42 -32 145 -1 124 -20 176 -85 242 -66 66
-107 82 -234 86 l-110 4 0 -143 0 -143 -195 -2 c-170 -2 -199 0 -234 16 -24
11 -90 70 -164 146 l-123 127 38 17 c74 34 116 132 93 216 -11 38 -55 86 -94
104 -28 13 -128 24 -137 16z"/>
</g>
</svg>
