<?xml version="1.0" standalone="no"?>
<!DOCTYPE svg PUBLIC "-//W3C//DTD SVG 20010904//EN"
 "http://www.w3.org/TR/2001/REC-SVG-20010904/DTD/svg10.dtd">
<svg version="1.0" xmlns="http://www.w3.org/2000/svg"
 width="260.000000pt" height="260.000000pt" viewBox="0 0 260.000000 260.000000"
 preserveAspectRatio="xMidYMid meet">
<metadata>
Created by potrace 1.11, written by Peter Selinger 2001-2013
</metadata>
<g transform="translate(0.000000,260.000000) scale(0.100000,-0.100000)"
fill="#000000" stroke="none">
<path d="M1501 2365 c-99 -31 -143 -117 -110 -216 18 -52 56 -86 110 -100 27
-7 49 -16 49 -19 0 -11 -252 -244 -295 -273 l-40 -27 -212 0 -213 0 0 125 0
125 -27 12 c-16 6 -53 13 -85 16 -45 3 -67 0 -111 -21 -72 -33 -130 -87 -161
-150 -22 -44 -26 -64 -26 -145 0 -91 -1 -96 -30 -129 -81 -92 -110 -196 -110
-399 l0 -151 -40 -46 -40 -45 0 -346 0 -346 210 0 209 0 3 152 3 151 59 -144
c32 -79 62 -147 66 -152 3 -4 104 -6 223 -5 l216 3 -110 254 c-67 155 -109
267 -109 287 l0 34 155 0 155 0 0 -106 0 -106 35 -41 35 -41 0 -143 0 -143
210 0 210 0 0 326 0 326 64 70 c46 49 73 89 93 137 l28 68 76 6 c44 3 96 13
121 25 91 40 162 144 175 254 5 48 12 59 65 115 65 68 88 113 88 170 -1 66
-29 106 -170 235 -125 114 -141 126 -222 157 -49 19 -88 37 -88 42 0 4 -23 32
-51 63 -115 126 -277 182 -408 141z m183 -125 c61 -23 133 -82 176 -145 26
-37 42 -48 122 -80 86 -34 102 -45 213 -148 154 -143 154 -144 52 -241 l-74
-71 -5 -71 c-6 -83 -32 -138 -82 -172 -18 -12 -36 -22 -42 -22 -5 0 -8 50 -5
120 4 161 -14 203 -83 186 -29 -7 -33 -17 -101 -231 -31 -99 -70 -207 -85
-240 -31 -63 -99 -141 -137 -156 l-23 -9 0 -305 0 -305 -90 0 -90 0 0 106 0
106 -35 41 -35 41 0 143 0 143 -275 0 -275 0 0 -106 0 -106 79 -184 79 -185
-90 3 -90 3 -101 245 c-55 135 -102 247 -104 249 -2 3 -30 -22 -63 -54 l-60
-59 0 -193 0 -193 -90 0 -90 0 0 264 0 263 40 46 40 45 0 171 c0 147 3 180 21
233 25 74 49 111 89 135 l30 17 0 121 c0 100 3 125 19 151 25 41 79 82 119 90
l32 7 0 -142 0 -141 290 0 290 0 58 37 c31 21 135 111 229 201 l172 164 -15
36 c-24 58 -65 93 -125 106 -45 10 -56 17 -64 40 -21 62 72 86 179 46z"/>
</g>
</svg>
