<?xml version="1.0" standalone="no"?>
<!DOCTYPE svg PUBLIC "-//W3C//DTD SVG 20010904//EN"
 "http://www.w3.org/TR/2001/REC-SVG-20010904/DTD/svg10.dtd">
<svg version="1.0" xmlns="http://www.w3.org/2000/svg"
 width="214.000000pt" height="214.000000pt" viewBox="0 0 214.000000 214.000000"
 preserveAspectRatio="xMidYMid meet">
<metadata>
Created by potrace 1.11, written by Peter Selinger 2001-2013
</metadata>
<g transform="translate(0.000000,214.000000) scale(0.100000,-0.100000)"
fill="#000000" stroke="none">
<path d="M1372 1805 c3 -5 0 -16 -8 -23 -8 -7 -14 -8 -14 -2 0 5 -5 10 -11 10
-6 0 -8 -7 -5 -16 3 -8 2 -13 -3 -9 -5 3 -11 2 -14 -2 -2 -5 -2 -3 -1 4 2 7
-5 10 -19 7 -12 -3 -28 -6 -34 -6 -9 -1 -10 -5 -2 -14 7 -8 6 -14 -2 -20 -7
-4 -9 -3 -6 3 4 6 0 14 -9 17 -9 3 -12 2 -9 -5 10 -15 -14 -39 -33 -32 -9 3
-14 3 -10 -2 11 -12 -11 -35 -28 -28 -8 3 -17 -3 -22 -16 -5 -15 -11 -18 -22
-11 -10 7 -11 10 -2 10 6 0 12 4 12 10 0 6 -10 5 -26 -2 -22 -10 -27 -9 -35 5
-8 14 -14 15 -31 6 -15 -8 -19 -8 -14 0 4 6 -3 15 -16 20 -17 6 -25 5 -30 -8
-6 -14 -7 -14 -7 2 -1 21 -27 23 -35 2 -3 -8 -11 -15 -18 -14 -10 0 -10 2 0 6
23 9 12 20 -14 15 -19 -3 -25 -1 -20 7 4 6 2 11 -3 11 -6 0 -11 -6 -11 -13 0
-8 -6 -14 -14 -14 -8 0 -12 7 -9 16 4 12 3 13 -5 3 -5 -8 -18 -11 -35 -7 -19
5 -26 3 -30 -12 -4 -14 -5 -14 -6 -2 -1 12 -8 15 -27 11 -19 -3 -25 -1 -20 7
4 6 2 11 -3 11 -6 0 -11 -6 -11 -13 0 -8 -6 -14 -14 -14 -8 0 -12 7 -9 16 4
12 3 13 -5 3 -5 -8 -18 -12 -28 -10 -13 2 -18 -2 -16 -12 3 -11 -1 -11 -16 3
-21 19 -37 23 -26 5 4 -7 3 -8 -4 -4 -6 4 -21 2 -32 -4 -16 -9 -18 -8 -14 5 3
8 10 13 14 10 5 -3 11 -1 14 3 7 12 -41 9 -51 -2 -4 -5 -2 -6 5 -2 18 10 15 1
-5 -15 -14 -12 -16 -12 -8 0 6 11 3 13 -13 9 -12 -4 -20 -2 -17 2 3 5 1 11 -5
15 -5 3 -10 0 -10 -8 0 -7 -6 -14 -14 -14 -8 0 -12 7 -9 16 4 12 3 13 -5 3 -5
-8 -18 -12 -28 -10 -13 2 -18 -2 -16 -12 3 -11 -1 -11 -16 3 -22 20 -36 23
-26 5 4 -7 -3 -4 -15 6 -17 16 -20 16 -16 4 9 -22 -10 -31 -25 -13 -14 17 -35
21 -25 5 3 -6 -1 -7 -9 -4 -9 3 -13 11 -10 16 4 7 0 7 -12 0 -18 -10 -26 -12
-40 -12 -4 0 -1 -7 6 -15 11 -13 10 -14 -4 -9 -9 3 -16 11 -16 17 0 6 -7 2
-15 -9 -8 -10 -15 -15 -15 -9 0 5 -7 -1 -16 -13 -8 -12 -20 -19 -26 -16 -7 4
-8 2 -4 -4 4 -6 12 -10 19 -9 7 2 2 -1 -11 -7 -12 -5 -22 -16 -22 -24 0 -8 5
-10 13 -6 8 5 8 2 -2 -9 -15 -18 -26 -23 -16 -7 3 6 -1 7 -9 4 -19 -7 -21 -20
-4 -30 7 -4 8 -3 4 4 -5 8 -1 10 9 5 10 -3 13 -8 6 -12 -6 -4 -6 -12 -1 -21 6
-9 4 -20 -3 -29 -9 -12 -9 -13 1 -7 7 4 12 2 12 -7 0 -17 47 -40 62 -31 7 5 8
2 3 -6 -6 -10 -4 -12 9 -7 10 4 15 3 11 -4 -4 -5 -16 -7 -28 -3 -12 3 -19 3
-15 -1 4 -4 24 -9 44 -11 20 -1 40 -8 44 -14 6 -9 9 -9 13 1 4 10 6 10 6 2 1
-7 6 -13 12 -13 5 0 7 6 3 13 -6 9 -4 9 7 0 16 -15 33 -17 24 -3 -3 6 1 7 10
3 12 -4 13 -8 4 -13 -8 -6 -6 -9 7 -13 18 -4 18 -5 -1 -6 -17 -1 -18 -3 -5
-11 13 -8 13 -10 -2 -10 -9 0 -20 -5 -24 -11 -4 -8 1 -9 17 -5 13 3 18 3 11 0
-6 -3 -9 -11 -6 -16 4 -6 3 -8 -3 -5 -5 3 -16 -10 -25 -29 -12 -27 -13 -32 -2
-23 17 14 19 -2 1 -20 -10 -11 -9 -12 2 -6 11 6 13 4 8 -8 -3 -10 -2 -17 3
-17 6 0 10 -5 10 -11 0 -5 -5 -7 -12 -3 -7 4 -8 3 -4 -5 5 -8 12 -9 20 -2 9 7
12 1 12 -24 0 -18 -3 -32 -7 -29 -4 2 -12 -3 -19 -12 -7 -8 -19 -13 -26 -10
-8 3 -20 -1 -28 -9 -11 -11 -16 -12 -19 -2 -4 9 -6 9 -6 -1 -1 -7 -6 -10 -12
-6 -8 4 -8 1 -1 -13 9 -16 6 -25 -14 -46 -14 -15 -20 -27 -13 -27 8 0 9 -4 0
-13 -8 -10 -7 -17 2 -27 9 -10 9 -11 -1 -6 -6 4 -12 3 -12 -2 0 -5 10 -14 23
-21 18 -9 18 -11 2 -6 l-20 5 20 -16 c11 -8 19 -20 18 -25 -3 -8 26 -14 50
-10 4 0 7 -7 7 -16 0 -13 -3 -14 -12 -5 -7 7 -19 12 -28 12 -9 0 -5 -6 10 -14
14 -7 29 -9 35 -4 5 5 15 -1 22 -14 7 -13 12 -16 11 -8 -2 9 1 15 7 15 5 0 9
-5 7 -11 -1 -6 4 -11 13 -11 8 0 12 4 9 9 -3 4 0 8 5 8 6 0 11 -4 11 -9 0 -5
7 -12 16 -15 14 -5 15 -4 4 9 -11 13 -10 14 5 9 13 -5 16 -4 11 4 -5 8 -2 10
9 6 13 -5 13 -9 3 -23 -11 -14 -11 -14 2 -5 8 6 23 10 33 8 12 -1 17 2 13 11
-3 9 0 12 9 9 8 -3 11 -13 8 -22 -4 -13 -2 -12 11 3 10 11 15 15 12 9 -3 -6 2
-11 10 -11 8 0 13 6 10 13 -3 8 0 11 9 8 8 -3 11 -13 9 -22 -5 -15 -4 -15 6 0
10 17 12 17 38 1 l27 -17 -20 23 -20 24 21 -11 c12 -6 25 -8 29 -4 4 4 4 -4 1
-18 -6 -21 -5 -22 4 -7 6 10 16 14 23 10 7 -4 6 1 -2 10 -12 15 -12 17 3 11 9
-3 16 -10 16 -15 0 -5 5 -9 11 -9 5 0 8 4 4 9 -3 5 0 13 6 17 7 4 9 3 5 -4 -3
-6 -2 -13 4 -17 5 -3 10 -1 10 5 0 7 6 5 15 -4 20 -20 19 -32 -2 -15 -15 12
-16 12 -10 -5 6 -16 5 -17 -8 -6 -9 7 -18 10 -22 6 -3 -3 -2 -6 4 -6 6 0 13
-7 17 -15 4 -13 2 -14 -14 -5 -11 6 -21 7 -21 3 -1 -4 -2 -14 -3 -22 0 -8 -8
-16 -16 -18 -13 -4 -13 -3 0 6 11 8 11 11 2 11 -7 0 -15 -7 -18 -15 -4 -8 -11
-12 -17 -8 -6 3 -7 1 -3 -6 4 -6 12 -9 17 -6 5 3 6 -1 3 -9 -5 -13 -10 -13
-27 -5 -18 9 -20 9 -10 -1 8 -9 9 -19 2 -32 -5 -10 -7 -18 -3 -18 3 0 1 -6 -5
-13 -8 -10 -7 -14 4 -14 8 0 11 5 8 10 -4 6 -1 7 7 2 10 -6 7 -13 -11 -27 -13
-11 -18 -17 -12 -13 15 7 18 -11 3 -20 -6 -4 -7 -12 -3 -18 6 -10 10 -32 15
-84 1 -6 8 -9 17 -5 12 4 11 0 -4 -19 -19 -22 -19 -23 -1 -9 18 14 19 13 13
-3 -5 -14 -2 -20 14 -24 16 -4 17 -8 7 -14 -10 -6 -8 -9 7 -9 17 0 17 -2 5
-10 -13 -8 -12 -10 3 -10 9 0 17 -7 17 -16 0 -9 5 -12 13 -8 7 5 6 0 -3 -11
-14 -17 -13 -17 10 -10 22 7 23 6 11 -9 -8 -9 -11 -19 -7 -23 3 -3 6 0 6 7 0
9 5 7 16 -6 11 -13 14 -14 11 -3 -5 17 26 20 40 4 5 -4 3 -5 -4 -1 -14 8 -28
-10 -14 -18 5 -4 13 -2 16 4 5 8 11 7 21 -1 9 -7 14 -8 13 -3 -4 22 3 24 33 9
l33 -16 -25 21 c-24 21 -24 21 -2 10 13 -6 31 -8 40 -4 27 12 43 13 36 3 -3
-5 -9 -7 -14 -4 -4 3 -14 -3 -21 -13 -12 -15 -12 -16 1 -6 8 6 25 10 37 9 13
-1 19 3 16 8 -4 6 1 8 11 4 11 -5 15 -3 10 5 -5 8 -2 9 9 5 9 -3 19 -2 22 3 3
4 16 7 30 5 19 -2 23 1 15 10 -10 12 -4 25 12 25 5 0 7 -4 4 -9 -4 -5 2 -8 11
-6 10 1 17 9 15 18 -2 12 2 15 13 11 10 -4 15 -2 13 6 -2 7 5 14 15 15 9 2 15
-1 11 -6 -3 -5 -11 -6 -17 -3 -7 4 -8 3 -4 -1 17 -19 35 -13 32 11 -1 13 2 24
6 24 5 0 9 -4 9 -10 0 -5 5 -10 11 -10 6 0 8 9 3 22 -6 21 -5 22 11 8 11 -9
16 -10 11 -2 -7 11 5 17 27 13 5 -1 6 3 2 9 -3 6 -10 8 -15 5 -5 -3 -12 0 -16
7 -4 7 -4 10 1 6 4 -4 14 -3 22 3 10 9 13 8 14 -2 0 -8 5 -3 10 10 8 20 11 22
26 10 14 -12 16 -12 8 0 -6 11 -3 13 16 8 23 -6 24 -6 4 10 -20 15 -20 15 3
10 19 -5 21 -3 11 9 -18 21 17 7 61 -25 28 -20 32 -22 20 -6 -14 19 -14 19 3
6 10 -8 16 -22 14 -32 -3 -12 0 -16 10 -12 8 3 12 12 8 22 -5 12 -4 13 6 4 10
-10 9 -15 -1 -28 -9 -11 -9 -15 -1 -15 7 0 9 -5 5 -12 -4 -7 -3 -8 5 -4 6 4 8
12 5 18 -5 7 -2 8 5 4 7 -5 10 -14 7 -22 -3 -7 -1 -16 5 -19 5 -4 7 -10 4 -15
-3 -5 4 -7 16 -5 17 3 20 2 12 -6 -6 -6 -9 -18 -6 -26 4 -11 8 -10 20 4 8 10
12 13 8 6 -7 -15 31 -37 48 -27 9 6 9 4 -1 -8 -10 -13 -9 -15 13 -13 14 2 23
-1 19 -6 -3 -5 1 -9 10 -9 8 0 16 -5 18 -12 3 -7 7 -5 11 6 4 9 3 15 -2 11 -5
-3 -12 -1 -15 4 -4 5 2 8 11 7 10 -2 19 -8 19 -14 3 -25 6 -26 13 -8 7 18 8
18 26 0 17 -17 18 -17 12 -2 -7 20 9 35 16 16 4 -10 6 -10 6 0 1 8 11 22 24
32 20 17 23 17 40 2 10 -9 18 -12 17 -7 -5 24 1 46 10 40 6 -4 7 -12 3 -18 -5
-8 -2 -8 9 0 8 7 19 9 23 5 5 -4 5 -1 1 6 -4 7 -12 9 -18 6 -7 -5 -8 -2 -4 5
5 7 15 10 23 7 8 -3 11 -1 8 4 -6 9 8 14 28 11 5 -1 6 3 3 8 -4 5 -2 12 3 16
6 3 8 13 5 23 -3 9 2 6 10 -8 l16 -25 -5 34 c-4 24 -1 37 11 45 14 11 14 13 0
25 -21 18 -20 31 2 31 14 0 15 2 2 9 -8 6 -18 7 -23 4 -5 -3 -4 4 2 15 6 11
11 32 11 46 0 14 5 26 12 26 6 0 8 3 5 6 -4 4 -13 2 -20 -5 -11 -9 -17 -7 -28
6 -8 9 -9 14 -2 10 6 -4 14 -3 18 3 6 9 -8 14 -28 11 -5 -1 -6 3 -3 8 4 5 2
13 -4 16 -8 5 -7 12 2 23 11 13 11 14 -1 7 -11 -6 -13 -2 -9 18 3 14 2 25 -3
24 -4 -1 -15 7 -24 18 -16 19 -16 18 -1 -7 9 -16 12 -28 7 -28 -5 0 -14 13
-21 30 -7 16 -17 27 -23 23 -6 -3 -7 -1 -3 6 4 6 12 8 18 5 7 -4 8 -2 4 5 -4
6 -2 20 5 29 10 12 7 11 -11 -3 l-24 -20 17 28 c10 15 15 33 11 39 -4 6 -3 8
3 5 5 -4 19 3 31 13 25 24 40 27 22 5 -22 -26 -6 -24 20 3 14 13 18 21 10 16
-13 -7 -13 -6 0 12 8 10 15 20 16 22 1 2 4 -4 8 -13 3 -9 2 -13 -4 -10 -6 3
-7 -1 -4 -10 7 -18 14 -14 18 10 1 9 9 21 17 27 11 8 11 9 -3 4 -10 -3 -20 -1
-23 5 -4 5 -3 9 2 8 20 -4 24 2 12 18 -13 15 -12 15 9 4 l23 -12 -18 28 c-15
24 -15 26 -1 15 12 -10 18 -10 24 -1 4 8 3 9 -4 5 -16 -10 -15 7 1 23 8 10 8
12 0 7 -6 -3 -15 -1 -19 5 -4 7 -3 9 2 6 6 -3 16 -2 24 4 13 7 12 9 -2 9 -10
0 -18 5 -18 11 0 5 5 7 11 4 6 -4 5 2 -3 14 -7 12 -16 21 -20 21 -5 0 -8 5 -8
11 0 5 4 8 9 4 6 -3 8 4 6 16 -6 28 -7 29 -37 31 -21 2 -25 6 -22 25 3 18 1
21 -13 17 -10 -3 -7 2 7 10 14 8 20 15 13 16 -7 0 -19 12 -27 28 -8 15 -15 22
-16 17 0 -6 7 -20 15 -33 13 -18 14 -21 1 -16 -8 3 -16 15 -19 26 -3 11 -10
17 -16 14 -5 -4 -12 2 -16 13 -3 11 -13 22 -22 25 -14 6 -14 4 -2 -11 13 -16
12 -17 -3 -4 -10 7 -18 22 -18 32 0 11 -4 19 -10 19 -5 0 -10 7 -10 16 0 8 -4
13 -9 9 -5 -3 -13 -1 -16 5 -4 6 -3 10 2 9 22 -4 25 3 7 17 -10 8 -13 12 -5 8
10 -5 11 -1 6 17 -4 13 -13 27 -19 31 -7 5 -5 8 6 8 9 0 18 -6 21 -12 3 -7 4
-3 4 9 -1 12 -5 19 -9 17 -4 -3 -9 4 -9 15 -3 42 -5 46 -22 43 -16 -3 -17 0
-7 18 11 20 10 21 -12 9 -13 -6 -20 -8 -15 -4 4 5 -1 18 -10 29 l-18 21 25
-20 25 -20 -20 23 c-11 13 -27 21 -36 19 -12 -3 -16 0 -12 10 3 8 12 12 20 9
8 -4 11 -1 8 5 -4 6 -13 8 -20 5 -16 -6 -38 17 -27 29 4 5 1 5 -6 1 -11 -6
-10 -12 5 -28 18 -20 18 -21 -4 -7 -13 8 -23 17 -23 21 0 4 -10 13 -22 19
l-23 12 20 -23 20 -24 -26 20 c-15 10 -25 22 -23 26 2 4 0 9 -5 12 -5 4 -13 1
-17 -5 -5 -8 -3 -9 7 -4 8 5 10 4 6 0 -13 -15 -38 -14 -44 1 -3 8 -10 11 -17
7 -6 -4 -5 1 3 10 15 19 1 23 -17 5 -9 -9 -12 -9 -13 3 0 9 -4 6 -9 -6 -7 -17
-9 -17 -9 -2 -1 9 -6 17 -12 17 -5 0 -7 -6 -3 -12 5 -8 0 -7 -11 2 -10 8 -16
11 -13 5z m-1122 -99 c0 -3 -4 -8 -10 -11 -5 -3 -10 -1 -10 4 0 6 5 11 10 11
6 0 10 -2 10 -4z m-54 -28 c4 -6 3 -8 -4 -4 -6 3 -13 2 -17 -4 -3 -5 -11 -10
-18 -10 -6 0 -2 7 9 15 23 18 21 17 30 3z m1521 -85 c1 -24 0 -25 -6 -8 -7 17
-6 35 2 35 2 0 3 -12 4 -27z m218 -363 c3 -6 -1 -7 -9 -4 -18 7 -21 14 -7 14
6 0 13 -4 16 -10z m10 -59 c3 -5 2 -12 -3 -15 -5 -3 -9 1 -9 9 0 17 3 19 12 6z
m-1338 -567 c-3 -3 -12 -4 -19 -1 -8 3 -5 6 6 6 11 1 17 -2 13 -5z m743 -44
c0 -5 7 -7 15 -4 8 4 15 4 15 1 0 -13 -30 -14 -40 -1 -9 10 -9 14 -1 14 6 0
11 -4 11 -10z m565 -28 c-3 -3 -11 0 -18 7 -9 10 -8 11 6 5 10 -3 15 -9 12
-12z m-1284 -65 c-10 -9 -11 -8 -5 6 3 10 9 15 12 12 3 -3 0 -11 -7 -18z
m1239 -6 c0 -6 -4 -12 -8 -15 -5 -3 -9 1 -9 9 0 8 4 15 9 15 4 0 8 -4 8 -9z
m-395 -29 c-3 -3 -11 0 -18 7 -9 10 -8 11 6 5 10 -3 15 -9 12 -12z m-468 -57
c0 -8 -3 -13 -5 -10 -3 3 -11 0 -18 -6 -8 -7 -14 -6 -20 2 -4 7 -3 9 3 6 6 -4
16 0 23 8 15 19 17 19 17 0z m-57 -15 c0 -5 -5 -10 -11 -10 -5 0 -7 5 -4 10 3
6 8 10 11 10 2 0 4 -4 4 -10z"/>
<path d="M1210 1734 c0 -8 5 -12 10 -9 6 4 8 11 5 16 -9 14 -15 11 -15 -7z"/>
<path d="M300 1721 c0 -6 4 -13 10 -16 6 -3 7 1 4 9 -7 18 -14 21 -14 7z"/>
<path d="M1083 1695 c0 -8 4 -12 9 -9 5 3 6 10 3 15 -9 13 -12 11 -12 -6z"/>
<path d="M1170 1699 c0 -5 5 -7 10 -4 6 3 10 8 10 11 0 2 -4 4 -10 4 -5 0 -10
-5 -10 -11z"/>
<path d="M70 1546 c0 -2 8 -10 18 -17 15 -13 16 -12 3 4 -13 16 -21 21 -21 13z"/>
<path d="M1895 1281 c-3 -5 -2 -12 3 -15 5 -3 9 1 9 9 0 17 -3 19 -12 6z"/>
<path d="M302 1178 c2 -7 -3 -12 -10 -10 -8 1 -11 -2 -6 -9 5 -9 2 -10 -12 -5
-15 6 -17 5 -6 -6 10 -10 16 -8 33 9 14 14 17 23 10 28 -7 4 -10 1 -9 -7z"/>
<path d="M186 1078 c3 -5 10 -6 15 -3 13 9 11 12 -6 12 -8 0 -12 -4 -9 -9z"/>
<path d="M1825 929 c-4 -6 -5 -12 -2 -15 2 -3 7 2 10 11 7 17 1 20 -8 4z"/>
<path d="M1864 742 c4 -3 14 -7 22 -8 9 -1 13 0 10 4 -4 3 -14 7 -22 8 -9 1
-13 0 -10 -4z"/>
<path d="M646 383 c-6 -14 -5 -15 5 -6 7 7 10 15 7 18 -3 3 -9 -2 -12 -12z"/>
<path d="M1745 370 c-3 -5 -1 -10 4 -10 6 0 11 5 11 10 0 6 -2 10 -4 10 -3 0
-8 -4 -11 -10z"/>
<path d="M1496 362 c-3 -4 4 -9 15 -9 23 -2 25 3 4 10 -8 4 -16 3 -19 -1z"/>
<path d="M1555 330 c-3 -5 -1 -10 4 -10 6 0 11 5 11 10 0 6 -2 10 -4 10 -3 0
-8 -4 -11 -10z"/>
</g>
</svg>
