<?xml version="1.0" encoding="UTF-8"?>
<svg width="49px" height="43px" viewBox="0 0 49 43" version="1.1" xmlns="http://www.w3.org/2000/svg" xmlns:xlink="http://www.w3.org/1999/xlink">
    <!-- Generator: Sketch 53.2 (72643) - https://sketchapp.com -->
    <title>Path</title>
    <desc>Created with Sketch.</desc>
    <g id="Blog" stroke="none" stroke-width="1" fill="none" fill-rule="evenodd">
        <g id="Artboard" transform="translate(-72.000000, -34.000000)" fill="#FFFFFF">
            <path d="M92.34375,48.0536585 L94.09375,48.0536585 L96.5,46.5853659 L104.8125,40.0829268 C104.740978,39.8336111 104.449312,39.4840176 103.9375,39.0341463 C103.169782,38.3593395 101.207254,38.9411468 100.65625,37.3560976 C100.105246,35.7710483 100.4375,34 103.9375,34 C105.680341,34 108.18227,35.064194 109.84375,36.9365854 C110.219034,37.3595088 110.656534,37.9188583 111.15625,38.6146341 L115.09375,40.0829268 L119.90625,44.4878049 C120.635417,44.7674797 121,45.4666667 121,46.5853659 C121,47.704065 119.90625,49.0325203 117.71875,50.5707317 C117.850427,52.529027 117.412927,54.1021977 116.40625,55.2902439 C115.399573,56.4782901 113.94124,57.0725991 112.03125,57.0731707 C112.322917,51.7593496 112.322917,49.5918699 112.03125,50.5707317 C111.59375,52.0390244 107.60371,58.6369553 106.5625,60.0097561 C105.395833,61.5479675 104.447917,62.4569106 103.71875,62.7365854 L103.71875,77 L97.15625,77 L97.15625,71.7560976 L95.625,70.0780488 L95.625,63.7853659 L86.21875,63.7853659 L86.21875,66.7219512 L90.375,77 L83.59375,77 L79.4375,66.302439 L78.5625,67.1414634 L78.5625,77 L72,77 L72,63.1560976 L73.75,61.2682927 L73.75,55.7097561 C73.9937972,54.4564816 74.3583805,53.3727417 74.84375,52.4585366 C75.3291195,51.5443314 75.9853695,50.8451445 76.8125,50.3609756 L76.8125,45.9560976 C77.3172025,44.5518833 78.1922025,43.5031028 79.4375,42.8097561 C80.6827975,42.1164094 81.9223808,41.976572 83.15625,42.3902439 L83.15625,48.0536585 L92.34375,48.0536585 Z" id="Path"></path>
        </g>
    </g>
</svg>