<?xml version="1.0" standalone="no"?>
<!DOCTYPE svg PUBLIC "-//W3C//DTD SVG 20010904//EN"
 "http://www.w3.org/TR/2001/REC-SVG-20010904/DTD/svg10.dtd">
<svg version="1.0" xmlns="http://www.w3.org/2000/svg"
 width="260.000000pt" height="260.000000pt" viewBox="0 0 260.000000 260.000000"
 preserveAspectRatio="xMidYMid meet">
<metadata>
Created by potrace 1.11, written by Peter Selinger 2001-2013
</metadata>
<g transform="translate(0.000000,260.000000) scale(0.100000,-0.100000)"
fill="#000000" stroke="none">
<path d="M1594 2391 c-41 -10 -85 -38 -107 -67 -29 -39 -33 -113 -9 -167 22
-50 50 -73 112 -91 l40 -12 -147 -121 c-82 -66 -175 -139 -207 -162 l-59 -41
-214 0 -213 0 0 125 0 125 -32 14 c-45 19 -153 14 -200 -8 -59 -28 -124 -92
-152 -148 -22 -45 -26 -65 -26 -146 0 -92 -1 -95 -34 -135 -79 -98 -106 -190
-106 -364 l0 -129 -40 -44 -39 -45 -1 -372 0 -373 210 0 210 0 2 165 3 165 53
-143 c29 -78 57 -152 62 -165 10 -22 11 -22 230 -22 144 0 219 3 215 10 -3 5
-25 61 -49 122 -24 62 -71 184 -105 271 -33 87 -61 173 -61 192 l0 35 155 0
155 0 0 -131 0 -131 35 -41 35 -41 0 -143 0 -143 210 0 210 0 0 353 0 352 46
45 c39 38 134 171 158 220 4 8 18 35 31 60 l25 45 0 -64 0 -64 80 6 c91 6 153
31 207 85 45 45 83 128 90 195 4 46 10 58 58 107 126 130 127 227 4 338 -35
31 -92 85 -129 120 -62 61 -110 89 -211 126 -28 10 -51 26 -60 42 -19 37 -119
127 -169 153 -84 44 -189 60 -266 42z"/>
</g>
</svg>
