<?xml version="1.0" encoding="UTF-8"?>
<svg width="224px" height="205px" viewBox="0 0 224 205" version="1.1" xmlns="http://www.w3.org/2000/svg" xmlns:xlink="http://www.w3.org/1999/xlink">
    <!-- Generator: Sketch 53.2 (72643) - https://sketchapp.com -->
    <title>Path</title>
    <desc>Created with Sketch.</desc>
    <g id="Blog" stroke="none" stroke-width="1" fill="none" fill-rule="evenodd">
        <g id="Artboard" transform="translate(-460.000000, -255.000000)" fill="#000000">
            <path d="M553,322 L561,322 L572,315 L610,284 C609.673044,282.811402 608.339711,281.144735 606,279 C602.490434,275.782898 593.518877,278.55663 591,271 C588.481123,263.44337 590,255 606,255 C613.967274,255 625.404664,260.073483 633,269 C634.715584,271.016263 636.715584,273.682929 639,277 L657,284 L679,305 C682.333333,306.333333 684,309.666667 684,315 C684,320.333333 679,326.666667 669,334 C669.601952,343.336059 667.601952,350.836059 663,356.5 C658.398048,362.163941 651.731381,364.997275 643,365 C644.333333,339.666667 644.333333,329.333333 643,334 C641,341 622.759817,372.455252 618,379 C612.666667,386.333333 608.333333,390.666667 605,392 L605,460 L575,460 L575,435 L568,427 L568,397 L525,397 L525,411 L544,460 L513,460 L494,409 L490,413 L490,460 L460,460 L460,394 L468,385 L468,358.5 C469.114501,352.525087 470.781168,347.35842 473,343 C475.218832,338.64158 478.218832,335.308247 482,333 L482,312 C484.307211,305.30549 488.307211,300.30549 494,297 C499.692789,293.69451 505.359455,293.027843 511,295 L511,322 L553,322 Z" id="Path"></path>
        </g>
    </g>
</svg>