{
    "asset" : {
        "generator" : "Khronos glTF Blender I/O v1.3.48",
        "version" : "2.0"
    },
    "scene" : 0,
    "scenes" : [
        {
            "name" : "Scene",
            "nodes" : [
                0
            ]
        }
    ],
    "nodes" : [
        {
            "mesh" : 0,
            "name" : "VHS_Standard",
            "scale" : [
                0.306036114692688,
                0.04471658542752266,
                0.166035994887352
            ]
        }
    ],
    "materials" : [
        {
            "doubleSided" : true,
            "emissiveFactor" : [
                0,
                0,
                0
            ],
            "name" : "cassette-top",
            "pbrMetallicRoughness" : {
                "baseColorFactor" : [
                    0.023650724440813065,
                    0.023650724440813065,
                    0.023650724440813065,
                    1
                ],
                "metallicFactor" : 0,
                "roughnessFactor" : 0.5
            }
        },
        {
            "doubleSided" : true,
            "emissiveFactor" : [
                0,
                0,
                0
            ],
            "name" : "cassette-base",
            "pbrMetallicRoughness" : {
                "baseColorFactor" : [
                    0.004241900518536568,
                    0.004241900518536568,
                    0.004241900518536568,
                    1
                ],
                "metallicFactor" : 0.5247524976730347,
                "roughnessFactor" : 0.29207921028137207
            }
        },
        {
            "doubleSided" : true,
            "emissiveFactor" : [
                0,
                0,
                0
            ],
            "name" : "cassette-spool",
            "pbrMetallicRoughness" : {
                "baseColorFactor" : [
                    0.011087688617408276,
                    0.011087688617408276,
                    0.02537340298295021,
                    1
                ],
                "metallicFactor" : 0,
                "roughnessFactor" : 0.12999999523162842
            }
        },
        {
            "doubleSided" : true,
            "emissiveFactor" : [
                0,
                0,
                0
            ],
            "name" : "cassette-label.003",
            "pbrMetallicRoughness" : {
                "baseColorFactor" : [
                    1,
                    1,
                    1,
                    1
                ],
                "metallicFactor" : 0,
                "roughnessFactor" : 0.5
            }
        },
        {
            "doubleSided" : true,
            "emissiveFactor" : [
                0,
                0,
                0
            ],
            "name" : "casette-wheel",
            "pbrMetallicRoughness" : {
                "baseColorFactor" : [
                    0.800000011920929,
                    0.800000011920929,
                    0.800000011920929,
                    1
                ],
                "metallicFactor" : 0,
                "roughnessFactor" : 0.5
            }
        }
    ],
    "meshes" : [
        {
            "name" : "Cube.004",
            "primitives" : [
                {
                    "attributes" : {
                        "POSITION" : 0,
                        "NORMAL" : 1,
                        "TEXCOORD_0" : 2
                    },
                    "indices" : 3,
                    "material" : 0
                },
                {
                    "attributes" : {
                        "POSITION" : 4,
                        "NORMAL" : 5,
                        "TEXCOORD_0" : 6
                    },
                    "indices" : 7,
                    "material" : 1
                },
                {
                    "attributes" : {
                        "POSITION" : 8,
                        "NORMAL" : 9,
                        "TEXCOORD_0" : 10
                    },
                    "indices" : 11,
                    "material" : 2
                },
                {
                    "attributes" : {
                        "POSITION" : 12,
                        "NORMAL" : 13,
                        "TEXCOORD_0" : 14
                    },
                    "indices" : 15,
                    "material" : 3
                },
                {
                    "attributes" : {
                        "POSITION" : 16,
                        "NORMAL" : 17,
                        "TEXCOORD_0" : 18
                    },
                    "indices" : 19,
                    "material" : 4
                }
            ]
        }
    ],
    "accessors" : [
        {
            "bufferView" : 0,
            "componentType" : 5126,
            "count" : 147,
            "max" : [
                1.0363425016403198,
                1.4765161275863647,
                0.5268580317497253
            ],
            "min" : [
                -1.0201176404953003,
                -0.52348393201828,
                -1.1038750410079956
            ],
            "type" : "VEC3"
        },
        {
            "bufferView" : 1,
            "componentType" : 5126,
            "count" : 147,
            "type" : "VEC3"
        },
        {
            "bufferView" : 2,
            "componentType" : 5126,
            "count" : 147,
            "type" : "VEC2"
        },
        {
            "bufferView" : 3,
            "componentType" : 5123,
            "count" : 180,
            "type" : "SCALAR"
        },
        {
            "bufferView" : 4,
            "componentType" : 5126,
            "count" : 1047,
            "max" : [
                1.0363425016403198,
                1.4765161275863647,
                0.896125078201294
            ],
            "min" : [
                -1.0201176404953003,
                -0.52348393201828,
                -1.1038750410079956
            ],
            "type" : "VEC3"
        },
        {
            "bufferView" : 5,
            "componentType" : 5126,
            "count" : 1047,
            "type" : "VEC3"
        },
        {
            "bufferView" : 6,
            "componentType" : 5126,
            "count" : 1047,
            "type" : "VEC2"
        },
        {
            "bufferView" : 7,
            "componentType" : 5123,
            "count" : 1248,
            "type" : "SCALAR"
        },
        {
            "bufferView" : 8,
            "componentType" : 5126,
            "count" : 27,
            "max" : [
                1.0081123113632202,
                1.4765160083770752,
                0.5268579721450806
            ],
            "min" : [
                -0.9918874502182007,
                1.4765160083770752,
                -0.5172942280769348
            ],
            "type" : "VEC3"
        },
        {
            "bufferView" : 9,
            "componentType" : 5126,
            "count" : 27,
            "type" : "VEC3"
        },
        {
            "bufferView" : 10,
            "componentType" : 5126,
            "count" : 27,
            "type" : "VEC2"
        },
        {
            "bufferView" : 11,
            "componentType" : 5123,
            "count" : 36,
            "type" : "SCALAR"
        },
        {
            "bufferView" : 12,
            "componentType" : 5126,
            "count" : 16,
            "max" : [
                0.8676085472106934,
                1.4765160083770752,
                0.8961249589920044
            ],
            "min" : [
                -0.8495386838912964,
                -0.2551911771297455,
                -0.47693371772766113
            ],
            "type" : "VEC3"
        },
        {
            "bufferView" : 13,
            "componentType" : 5126,
            "count" : 16,
            "type" : "VEC3"
        },
        {
            "bufferView" : 14,
            "componentType" : 5126,
            "count" : 16,
            "type" : "VEC2"
        },
        {
            "bufferView" : 15,
            "componentType" : 5123,
            "count" : 24,
            "type" : "SCALAR"
        },
        {
            "bufferView" : 16,
            "componentType" : 5126,
            "count" : 147,
            "max" : [
                0.7036917209625244,
                -0.5234838128089905,
                0.3289068937301636
            ],
            "min" : [
                -0.6855676174163818,
                -0.5234838128089905,
                -0.3708938956260681
            ],
            "type" : "VEC3"
        },
        {
            "bufferView" : 17,
            "componentType" : 5126,
            "count" : 147,
            "type" : "VEC3"
        },
        {
            "bufferView" : 18,
            "componentType" : 5126,
            "count" : 147,
            "type" : "VEC2"
        },
        {
            "bufferView" : 19,
            "componentType" : 5123,
            "count" : 189,
            "type" : "SCALAR"
        }
    ],
    "bufferViews" : [
        {
            "buffer" : 0,
            "byteLength" : 1764,
            "byteOffset" : 0
        },
        {
            "buffer" : 0,
            "byteLength" : 1764,
            "byteOffset" : 1764
        },
        {
            "buffer" : 0,
            "byteLength" : 1176,
            "byteOffset" : 3528
        },
        {
            "buffer" : 0,
            "byteLength" : 360,
            "byteOffset" : 4704
        },
        {
            "buffer" : 0,
            "byteLength" : 12564,
            "byteOffset" : 5064
        },
        {
            "buffer" : 0,
            "byteLength" : 12564,
            "byteOffset" : 17628
        },
        {
            "buffer" : 0,
            "byteLength" : 8376,
            "byteOffset" : 30192
        },
        {
            "buffer" : 0,
            "byteLength" : 2496,
            "byteOffset" : 38568
        },
        {
            "buffer" : 0,
            "byteLength" : 324,
            "byteOffset" : 41064
        },
        {
            "buffer" : 0,
            "byteLength" : 324,
            "byteOffset" : 41388
        },
        {
            "buffer" : 0,
            "byteLength" : 216,
            "byteOffset" : 41712
        },
        {
            "buffer" : 0,
            "byteLength" : 72,
            "byteOffset" : 41928
        },
        {
            "buffer" : 0,
            "byteLength" : 192,
            "byteOffset" : 42000
        },
        {
            "buffer" : 0,
            "byteLength" : 192,
            "byteOffset" : 42192
        },
        {
            "buffer" : 0,
            "byteLength" : 128,
            "byteOffset" : 42384
        },
        {
            "buffer" : 0,
            "byteLength" : 48,
            "byteOffset" : 42512
        },
        {
            "buffer" : 0,
            "byteLength" : 1764,
            "byteOffset" : 42560
        },
        {
            "buffer" : 0,
            "byteLength" : 1764,
            "byteOffset" : 44324
        },
        {
            "buffer" : 0,
            "byteLength" : 1176,
            "byteOffset" : 46088
        },
        {
            "buffer" : 0,
            "byteLength" : 378,
            "byteOffset" : 47264
        }
    ],
    "buffers" : [
        {
            "byteLength" : 47644,
            "uri" : "data:application/octet-stream;base64,"
        }
    ]
}
